<svg xmlns="http://www.w3.org/2000/svg" xmlns:xlink="http://www.w3.org/1999/xlink" preserveAspectRatio="xMidYMid meet" version="1.0" viewBox="0.7 4.8 30.6 22.2" zoomAndPan="magnify" style="fill: rgb(255, 255, 255);" original_string_length="1231"><g id="__id373_se5xpx2b5o"><path d="M30,25h-1.2782c.17224-.29535,.2782-.63409,.2782-1V11c0-1.10303-.89746-2-2-2h-5c-.36841,0-.70947,.10712-1.00623,.28162l.32361-1.14392c.30078-1.06104-.31836-2.16846-1.37989-2.46924l-1.92479-.54443c-1.05664-.29883-2.16699,.31982-2.46777,1.37988l-3.54492,12.52942V6c0-.55225-.44727-1-1-1H4c-.55273,0-1,.44775-1,1V24c0,.36591,.10596,.70465,.2782,1h-1.2782c-1.28699,0-1.28912,2,0,2H30c1.28699,0,1.28912-2,0-2Zm-25-1V7h5l.00098,17H5ZM17.46875,7.04883l1.9248,.54395-.27228,.96277-1.92474-.54456,.27222-.96216Zm-2.70312,16.90234l-1.9248-.54443,3.81116-13.47083,1.9248,.54456-3.81018,13.47119-.00098-.00049Zm1.68542,1.04883c.09705-.1557,.18597-.31879,.2384-.50391l3.31055-11.70184v11.20575c0,.36591,.10596,.70465,.2782,1h-3.82715Zm5.54895-14h5l.00006,1h-5.00006v-1Zm0,3h5.00024l.00049,7h-5.00073v-7Zm0,10v-1h5.00092l.00006,1h-5.00098ZM8,11h-1c-1.28912,0-1.28699-2,0-2h1c1.28912,0,1.28699,2,0,2Zm0,11h-1c-1.28912,0-1.28699-2,0-2h1c1.28912,0,1.28699,2,0,2Z" style="fill: inherit;"/></g></svg>