<svg preserveAspectRatio="xMidYMid meet" version="1.0" viewBox="2.7 9.0 58.6 45.9" xmlns="http://www.w3.org/2000/svg" xmlns:xlink="http://www.w3.org/1999/xlink" zoomAndPan="magnify" style="fill: rgb(255, 255, 255);" original_string_length="2628"><g id="__id224_sbisiuayip"><path d="M10.2 50.5H17.1V52.2H10.2z" style="fill: inherit;"/><path d="M10.2 48.3H17.1V50H10.2z" style="fill: inherit;"/><path d="M10.2 43.9H17.1V45.6H10.2z" style="fill: inherit;"/><path d="M10.2 41.7H17.1V43.400000000000006H10.2z" style="fill: inherit;"/><path d="M10.2 46.1H17.1V47.800000000000004H10.2z" style="fill: inherit;"/><path d="M21.9,23.6v4.2h2.2c0.2,0,0.4,0,0.6,0c0,0,0,0,0,0v-4.2H21.9z" style="fill: inherit;"/><path d="M5.8,53.9c0,0.2,0.2,0.4,0.4,0.4h0.2c0.2,0,0.4-0.2,0.4-0.4v-21H5.8V53.9z" style="fill: inherit;"/><path d="M28.2,23.6h-2.9v4.2c0,0,0,0,0,0.1c1,0.1,2,0.3,2.9,0.6V23.6z" style="fill: inherit;"/><path d="M43.2,48.3V27.8V26v-1c0-0.7-0.6-1.3-1.3-1.3c-0.7,0-1.3,0.6-1.3,1.3v19.3l0.7,1.4C41.8,46.7,42.4,47.6,43.2,48.3z" style="fill: inherit;"/><path d="M10.2 39.5H17.1V41.2H10.2z" style="fill: inherit;"/><path d="M13.6,13.1c0.6,0,1.2,0.2,1.6,0.7l7,7.2c0.2,0.3,0.6,0.4,0.9,0.4c0.3,0,0.7-0.1,0.9-0.4c0.3-0.2,0.4-0.6,0.4-0.9 c0-0.3-0.1-0.7-0.4-0.9l-9.2-9.5C14.2,9,13,9,12.3,9.7l-9.2,9.5c-0.2,0.3-0.4,0.6-0.4,0.9c0,0.3,0.1,0.7,0.4,0.9s0.6,0.4,0.9,0.4 c0.3,0,0.7-0.1,0.9-0.4l7-7.2C12.4,13.4,13,13.1,13.6,13.1z" style="fill: inherit;"/><path d="M21.4,32.4v-0.2V28v-7.1l-6.5-6.7c-0.7-0.7-1.9-0.7-2.6,0l-6.5,6.7v11.5h3.5v-6.2c0-2.4,1.9-4.3,4.3-4.3 c2.4,0,4.3,1.9,4.3,4.3v6.2H21.4z M13.6,19.9c-1.1,0-2.1-0.9-2.1-2.1s0.9-2.1,2.1-2.1s2.1,0.9,2.1,2.1S14.8,19.9,13.6,19.9z" style="fill: inherit;"/><path d="M10.2 37.3H17.1V39H10.2z" style="fill: inherit;"/><path d="M40.6,53.9c0,0.2,0.2,0.4,0.4,0.4h1.8c0.2,0,0.4-0.2,0.4-0.4v0c-1-0.5-1.8-1-2.7-1.7V53.9z" style="fill: inherit;"/><path d="M20.4,53.9c0,0.2,0.2,0.4,0.4,0.4H21c0.2,0,0.4-0.2,0.4-0.4v-21h-1.1V53.9z" style="fill: inherit;"/><path d="M59.9,23.7c-0.7,0-1.3,0.6-1.3,1.3v1v1.8v26.2c0,0.2,0.2,0.4,0.4,0.4h1.8c0.2,0,0.4-0.2,0.4-0.4V25 C61.3,24.3,60.7,23.7,59.9,23.7z" style="fill: inherit;"/><path d="M49.2,51.2c-2.2,0-4.2-0.8-5.9-2.1c0,0,0,0,0,0c-1-0.8-1.9-1.9-2.5-3.2l-5-10.3c-2.1-4.5-6.7-7.4-11.7-7.4h-2.2v3.7h2.2 c3.6,0,6.9,2.1,8.4,5.3l5,10.3c2.1,4.5,6.8,7.4,11.7,7.4l3.2-0.1l-0.1-3.7L49.2,51.2z" style="fill: inherit;"/><path d="M10.2 35.1H17.1V36.800000000000004H10.2z" style="fill: inherit;"/><path d="M10.2 32.9H17.1V34.6H10.2z" style="fill: inherit;"/><circle cx="13.6" cy="17.8" r="1.6" style="fill: inherit;"/><path d="M13.6,22.4c-2.1,0-3.8,1.7-3.8,3.8v6.2h7.7v-6.2C17.5,24.1,15.7,22.4,13.6,22.4z" style="fill: inherit;"/></g><g id="__id225_sbisiuayip"><path d="M58.1,27.5v-1.3H43.7v1.3H47v19h-0.2c-0.6,0-1.1,0.5-1.1,1.1s0.5,1.1,1.1,1.1h8.3c0.6,0,1.1-0.5,1.1-1.1s-0.5-1.1-1.1-1.1 h-0.2v-19H58.1z M47.5,27.5h6.8v19h-6.8V27.5z" style="fill: inherit;"/></g></svg>