<svg preserveAspectRatio="xMidYMid meet" version="1.0" viewBox="0.0 0.0 22.0 30.0" xmlns="http://www.w3.org/2000/svg" xmlns:xlink="http://www.w3.org/1999/xlink" zoomAndPan="magnify" style="fill: rgb(255, 255, 255);" original_string_length="1500"><g id="__id374_se5xpx2b5o"><path d="m21,4h-3c0-.55-.45-1-1-1h-2.14c-.45-1.72-2-3-3.86-3s-3.41,1.28-3.86,3h-2.14c-.55,0-1,.45-1,1H1c-.55,0-1,.45-1,1v24c0,.55.45,1,1,1h20c.55,0,1-.45,1-1V5c0-.55-.45-1-1-1Zm-10-2c.74,0,1.37.41,1.72,1h-3.44c.35-.59.99-1,1.72-1Zm5,3v1H6v-1h10Zm3,23H3c-.55,0-1-.45-1-1V7c0-.55.45-1,1-1h1v1c0,.55.45,1,1,1h12c.55,0,1-.45,1-1v-1h1c.55,0,1,.45,1,1v20c0,.55-.45,1-1,1ZM8.68,11.32c.39.39.39,1.02,0,1.41l-1.98,1.98c-.2.2-.45.29-.71.29s-.51-.1-.71-.29l-1-1c-.39-.39-.39-1.02,0-1.41s1.02-.39,1.41,0l.29.29,1.27-1.27c.39-.39,1.02-.39,1.41,0Zm9.32,1.68c0,.55-.45,1-1,1h-5c-.55,0-1-.45-1-1s.45-1,1-1h5c.55,0,1,.45,1,1Zm-9.32,3.32c.39.39.39,1.02,0,1.41l-1.98,1.98c-.2.2-.45.29-.71.29s-.51-.1-.71-.29l-1-1c-.39-.39-.39-1.02,0-1.41s1.02-.39,1.41,0l.29.29,1.27-1.27c.39-.39,1.02-.39,1.41,0Zm9.32,1.68c0,.55-.45,1-1,1h-5c-.55,0-1-.45-1-1s.45-1,1-1h5c.55,0,1,.45,1,1Zm-9.32,3.32c.39.39.39,1.02,0,1.41l-1.98,1.98c-.2.2-.45.29-.71.29s-.51-.1-.71-.29l-1-1c-.39-.39-.39-1.02,0-1.41s1.02-.39,1.41,0l.29.29,1.27-1.27c.39-.39,1.02-.39,1.41,0Zm9.32,1.68c0,.55-.45,1-1,1h-5c-.55,0-1-.45-1-1s.45-1,1-1h5c.55,0,1,.45,1,1Z" style="fill: inherit;"/></g></svg>